# Rhino

v -12.600000381469727 4.4000000953674316 -11.199999809265137
v -12.600000381469727 7.1999998092651367 -11.199999809265137
v -12.600000381469727 4.4000000953674316 -15.800000190734863
v -12.600000381469727 7.1999998092651367 -15.800000190734863
vt 0 0
vt 0 1
vt 1 0
vt 1 1
vn 1 0 0
vn 1 0 0
vn 1 0 0
vn 1 0 0
f 4/4/4 2/2/2 1/1/1 3/3/3
v -12.600000381469727 4.4000000953674316 -9
v -12.600000381469727 7.1999998092651367 -9
v -12.600000381469727 4.4000000953674316 -10.199999809265137
v -12.600000381469727 7.1999998092651367 -10.199999809265137
vt 0 0
vt 0 1
vt 1 0
vt 1 1
vn 1 0 0
vn 1 0 0
vn 1 0 0
vn 1 0 0
f 8/8/8 6/6/6 5/5/5 7/7/7
v -9.1000003814697266 4.4000000953674316 -4.1999998092651367
v -9.1000003814697266 7.1999998092651367 -4.1999998092651367
v -11.899999618530273 4.4000000953674316 -4.1999998092651367
v -11.899999618530273 7.1999998092651367 -4.1999998092651367
vt 0 0
vt 0 1
vt 1 0
vt 1 1
vn 0 0 -1
vn 0 0 -1
vn 0 0 -1
vn 0 0 -1
f 12/12/12 10/10/10 9/9/9 11/11/11
v -0.69999998807907104 4.4000000953674316 -4.1999998092651367
v -0.69999998807907104 7.1999998092651367 -4.1999998092651367
v -7.6999998092651367 4.4000000953674316 -4.1999998092651367
v -7.6999998092651367 7.1999998092651367 -4.1999998092651367
vt 0 0
vt 0 1
vt 1 0
vt 1 1
vn 0 0 -1
vn 0 0 -1
vn 0 0 -1
vn 0 0 -1
f 16/16/16 14/14/14 13/13/13 15/15/15
v -0.69999998807907104 0.40000000596046448 -4.1999998092651367
v -0.69999998807907104 3.2000000476837158 -4.1999998092651367
v -3.7999999523162842 0.40000000596046448 -4.1999998092651367
v -3.7999999523162842 3.2000000476837158 -4.1999998092651367
vt 0 0
vt 0 1
vt 1 0
vt 1 1
vn 0 0 -1
vn 0 0 -1
vn 0 0 -1
vn 0 0 -1
f 20/20/20 18/18/18 17/17/17 19/19/19
v -12.600000381469727 0.40000000596046448 -9
v -12.600000381469727 3.2000000476837158 -9
v -12.600000381469727 0.40000000596046448 -10.199999809265137
v -12.600000381469727 3.2000000476837158 -10.199999809265137
vt 0 0
vt 0 1
vt 1 0
vt 1 1
vn 1 0 0
vn 1 0 0
vn 1 0 0
vn 1 0 0
f 24/24/24 22/22/22 21/21/21 23/23/23
v -12.600000381469727 0.40000000596046448 -11.199999809265137
v -12.600000381469727 3.2000000476837158 -11.199999809265137
v -12.600000381469727 0.40000000596046448 -15.800000190734863
v -12.600000381469727 3.2000000476837158 -15.800000190734863
vt 0 0
vt 0 1
vt 1 0
vt 1 1
vn 1 0 0
vn 1 0 0
vn 1 0 0
vn 1 0 0
f 28/28/28 26/26/26 25/25/25 27/27/27
v -8.3000001907348633 4.4000000953674316 -16.799999237060547
v -8.3000001907348633 7.1999998092651367 -16.799999237060547
v -7.0999999046325684 4.4000000953674316 -16.799999237060547
v -7.0999999046325684 7.1999998092651367 -16.799999237060547
vt 0 0
vt 0 1
vt 1 0
vt 1 1
vn 0 0 1
vn 0 0 1
vn 0 0 1
vn 0 0 1
f 32/32/32 30/30/30 29/29/29 31/31/31
v -8.3000001907348633 0.40000000596046448 -16.799999237060547
v -8.3000001907348633 3.2000000476837158 -16.799999237060547
v -7.0999999046325684 0.40000000596046448 -16.799999237060547
v -7.0999999046325684 3.2000000476837158 -16.799999237060547
vt 0 0
vt 0 1
vt 1 0
vt 1 1
vn 0 0 1
vn 0 0 1
vn 0 0 1
vn 0 0 1
f 36/36/36 34/34/34 33/33/33 35/35/35
v 4.0999999046325684 0.40000000596046448 -16.799999237060547
v 4.0999999046325684 3.2000000476837158 -16.799999237060547
v 19.100000381469727 0.40000000596046448 -16.799999237060547
v 19.100000381469727 3.2000000476837158 -16.799999237060547
vt 0 0
vt 0 1
vt 1 0
vt 1 1
vn 0 0 1
vn 0 0 1
vn 0 0 1
vn 0 0 1
f 40/40/40 38/38/38 37/37/37 39/39/39
v 25.200000762939453 1.2000000476837158 -13.300000190734863
v 25.200000762939453 3.2000000476837158 -13.300000190734863
v 25.200000762939453 1.2000000476837158 -16.100000381469727
v 25.200000762939453 3.2000000476837158 -16.100000381469727
vt 0 0
vt 0 1
vt 1 0
vt 1 1
vn 1 0 0
vn 1 0 0
vn 1 0 0
vn 1 0 0
f 44/44/44 42/42/42 41/41/41 43/43/43
v 25.200000762939453 1.2000000476837158 -9.1000003814697266
v 25.200000762939453 3.2000000476837158 -9.1000003814697266
v 25.200000762939453 1.2000000476837158 -11.899999618530273
v 25.200000762939453 3.2000000476837158 -11.899999618530273
vt 0 0
vt 0 1
vt 1 0
vt 1 1
vn 1 0 0
vn 1 0 0
vn 1 0 0
vn 1 0 0
f 48/48/48 46/46/46 45/45/45 47/47/47
v 25.200000762939453 1.2000000476837158 -1.3999999761581421
v 25.200000762939453 3.2000000476837158 -1.3999999761581421
v 25.200000762939453 1.2000000476837158 -7
v 25.200000762939453 3.2000000476837158 -7
vt 0 0
vt 0 1
vt 1 0
vt 1 1
vn 1 0 0
vn 1 0 0
vn 1 0 0
vn 1 0 0
f 52/52/52 50/50/50 49/49/49 51/51/51
v 4.0999999046325684 0.40000000596046448 0
v 4.0999999046325684 3.2000000476837158 0
v 19.100000381469727 0.40000000596046448 0
v 19.100000381469727 3.2000000476837158 0
vt 0 0
vt 0 1
vt 1 0
vt 1 1
vn 0 0 1
vn 0 0 1
vn 0 0 1
vn 0 0 1
f 56/56/56 54/54/54 53/53/53 55/55/55
